<?xml version="1.0" encoding="UTF-8" ?>
<!DOCTYPE svg PUBLIC "-//W3C//DTD SVG 1.1//EN" "http://www.w3.org/Graphics/SVG/1.1/DTD/svg11.dtd">
<svg width="1080pt" height="1080pt" viewBox="0 0 1080 1080" version="1.1" xmlns="http://www.w3.org/2000/svg">
<!--  <g id="#f7f7f6ff">-->
<!--    <path fill="#f7f7f6" opacity="1.00" d=" M 0.00 0.00 L 1080.00 0.00 L 1080.00 1080.00 L 0.00 1080.00 L 0.00 0.00 M 490.82 177.87 C 461.87 189.81 433.06 202.10 404.14 214.10 C 338.60 241.64 272.87 268.74 207.37 296.38 C 199.70 299.47 194.73 307.09 193.08 314.96 C 182.85 347.67 172.62 380.39 161.89 412.94 C 160.77 416.53 159.29 420.27 160.05 424.11 C 161.09 430.70 165.29 436.95 171.70 439.34 C 205.89 455.71 239.89 472.49 274.04 488.94 C 279.03 491.56 285.16 491.52 290.26 489.24 C 295.99 486.73 301.72 484.22 307.43 481.68 C 307.82 477.83 308.89 474.12 310.22 470.51 C 322.39 434.35 334.78 398.26 346.92 362.09 C 350.24 352.67 357.58 344.87 366.66 340.77 C 405.34 324.87 443.97 308.82 482.65 292.92 C 476.49 278.47 481.95 260.68 494.16 251.16 C 506.08 243.18 518.43 235.83 530.39 227.90 C 525.41 217.32 521.10 206.44 516.20 195.82 C 513.87 190.98 512.46 185.42 508.35 181.69 C 503.71 177.55 496.76 175.43 490.82 177.87 M 609.36 203.63 C 607.24 204.25 605.29 205.29 603.40 206.41 C 571.46 226.06 539.84 246.24 507.89 265.88 C 500.81 270.47 498.23 280.45 501.94 287.99 C 516.22 320.00 530.72 351.91 544.99 383.92 C 547.52 389.16 549.35 395.18 554.14 398.89 C 558.31 402.49 563.76 403.86 568.90 405.45 C 662.60 434.88 756.20 464.64 849.96 493.85 C 856.66 495.60 863.99 492.57 868.26 487.29 C 873.15 481.63 874.14 473.96 876.44 467.10 C 880.41 455.10 883.77 442.91 887.72 430.91 C 893.55 413.36 898.24 395.47 904.09 377.93 C 909.50 360.70 914.66 343.38 920.17 326.18 C 922.12 319.46 925.46 311.99 921.82 305.21 C 918.28 297.18 909.35 294.30 901.51 292.33 C 813.23 264.42 725.02 236.25 636.75 208.28 C 627.87 205.79 618.77 200.37 609.36 203.63 M 376.36 358.42 C 369.07 361.36 365.00 368.68 362.98 375.90 C 351.30 410.57 339.40 445.17 328.10 479.97 C 326.21 485.78 328.23 492.35 332.19 496.83 C 336.13 500.64 341.55 502.24 346.32 504.75 C 377.82 520.28 409.42 535.63 441.12 550.76 C 446.19 552.94 452.09 552.42 456.99 550.03 C 520.39 523.78 583.64 497.18 647.14 471.16 C 656.36 467.32 665.78 463.86 674.77 459.54 C 637.63 448.18 600.65 436.30 563.65 424.51 C 554.50 422.00 545.03 418.78 538.30 411.75 C 533.72 407.55 531.41 401.66 528.85 396.15 C 516.19 367.71 503.40 339.32 490.57 310.95 C 452.55 326.89 414.41 342.56 376.36 358.42 M 567.25 592.27 C 563.70 594.07 561.37 597.96 561.26 601.90 C 561.63 666.11 561.24 730.31 561.44 794.52 C 551.25 789.02 539.55 786.69 528.03 786.78 C 506.51 786.87 485.24 795.82 469.92 810.90 C 458.88 821.85 450.59 836.32 449.54 852.07 C 448.64 862.04 450.97 872.21 456.16 880.77 C 463.59 894.18 478.37 901.77 493.01 904.44 C 519.96 908.98 549.07 898.76 567.13 878.20 C 577.40 865.92 584.08 850.17 583.81 834.01 C 583.70 776.31 583.91 718.61 583.57 660.92 C 598.43 670.77 616.18 676.07 633.96 676.64 C 649.62 676.67 665.42 672.73 678.98 664.81 C 683.30 662.30 687.48 658.39 687.92 653.12 C 688.50 648.03 684.88 643.19 679.99 641.93 C 675.82 639.99 671.62 642.51 667.48 643.17 C 653.60 645.59 639.20 643.13 626.33 637.64 C 608.92 630.08 594.36 616.47 585.06 599.98 C 583.76 597.70 582.48 595.30 580.45 593.59 C 576.85 590.55 571.37 590.04 567.25 592.27 Z" />-->
<!--    <path fill="#f7f7f6" opacity="1.00" d=" M 557.37 271.47 C 568.52 267.88 581.96 273.63 586.33 284.68 C 589.89 292.59 588.22 302.20 582.99 308.98 C 577.98 315.10 569.88 318.70 561.96 317.84 C 555.19 317.30 548.80 313.71 544.72 308.31 C 539.97 301.67 538.81 292.57 542.02 285.03 C 544.64 278.42 550.64 273.49 557.37 271.47 M 559.34 284.47 C 555.13 286.43 552.70 291.41 553.71 295.94 C 554.50 301.15 559.76 305.02 564.96 304.45 C 571.58 304.35 576.64 296.92 574.33 290.72 C 572.53 284.65 564.91 281.79 559.34 284.47 Z" />-->
<!--    <path fill="#f7f7f6" opacity="1.00" d=" M 215.14 380.10 C 223.19 377.93 232.19 380.13 238.37 385.71 C 248.15 394.80 246.72 412.17 236.40 420.28 C 227.84 427.29 214.49 426.98 206.11 419.84 C 199.12 414.01 196.57 403.76 199.13 395.15 C 201.16 387.67 207.74 381.96 215.14 380.10 Z" />-->
<!--    <path fill="#f7f7f6" opacity="1.00" d=" M 383.37 441.48 C 390.02 439.62 397.26 441.37 402.88 445.20 C 408.43 448.94 411.84 455.35 412.66 461.91 C 412.90 470.13 409.14 478.73 402.03 483.17 C 396.17 486.79 388.68 488.01 382.08 485.82 C 375.09 483.64 368.89 478.24 366.82 471.08 C 364.91 464.54 365.26 456.94 369.22 451.20 C 372.48 446.30 377.77 443.04 383.37 441.48 Z" />-->
<!--  </g>-->
  <g id="#24aaebff">
    <path fill="#24aaeb" opacity="1.00" d=" M 490.82 177.87 C 496.76 175.43 503.71 177.55 508.35 181.69 C 512.46 185.42 513.87 190.98 516.20 195.82 C 521.10 206.44 525.41 217.32 530.39 227.90 C 518.43 235.83 506.08 243.18 494.16 251.16 C 481.95 260.68 476.49 278.47 482.65 292.92 C 443.97 308.82 405.34 324.87 366.66 340.77 C 357.58 344.87 350.24 352.67 346.92 362.09 C 334.78 398.26 322.39 434.35 310.22 470.51 C 308.89 474.12 307.82 477.83 307.43 481.68 C 301.72 484.22 295.99 486.73 290.26 489.24 C 285.16 491.52 279.03 491.56 274.04 488.94 C 239.89 472.49 205.89 455.71 171.70 439.34 C 165.29 436.95 161.09 430.70 160.05 424.11 C 159.29 420.27 160.77 416.53 161.89 412.94 C 172.62 380.39 182.85 347.67 193.08 314.96 C 194.73 307.09 199.70 299.47 207.37 296.38 C 272.87 268.74 338.60 241.64 404.14 214.10 C 433.06 202.10 461.87 189.81 490.82 177.87 M 215.14 380.10 C 207.74 381.96 201.16 387.67 199.13 395.15 C 196.57 403.76 199.12 414.01 206.11 419.84 C 214.49 426.98 227.84 427.29 236.40 420.28 C 246.72 412.17 248.15 394.80 238.37 385.71 C 232.19 380.13 223.19 377.93 215.14 380.10 Z" />
  </g>
  <g id="#21c685ff">
    <path fill="#21c685" opacity="1.00" d=" M 609.36 203.63 C 618.77 200.37 627.87 205.79 636.75 208.28 C 725.02 236.25 813.23 264.42 901.51 292.33 C 909.35 294.30 918.28 297.18 921.82 305.21 C 925.46 311.99 922.12 319.46 920.17 326.18 C 914.66 343.38 909.50 360.70 904.09 377.93 C 898.24 395.47 893.55 413.36 887.72 430.91 C 883.77 442.91 880.41 455.10 876.44 467.10 C 874.14 473.96 873.15 481.63 868.26 487.29 C 863.99 492.57 856.66 495.60 849.96 493.85 C 756.20 464.64 662.60 434.88 568.90 405.45 C 563.76 403.86 558.31 402.49 554.14 398.89 C 549.35 395.18 547.52 389.16 544.99 383.92 C 530.72 351.91 516.22 320.00 501.94 287.99 C 498.23 280.45 500.81 270.47 507.89 265.88 C 539.84 246.24 571.46 226.06 603.40 206.41 C 605.29 205.29 607.24 204.25 609.36 203.63 M 557.37 271.47 C 550.64 273.49 544.64 278.42 542.02 285.03 C 538.81 292.57 539.97 301.67 544.72 308.31 C 548.80 313.71 555.19 317.30 561.96 317.84 C 569.88 318.70 577.98 315.10 582.99 308.98 C 588.22 302.20 589.89 292.59 586.33 284.68 C 581.96 273.63 568.52 267.88 557.37 271.47 Z" />
  </g>
  <g id="#f979a9ff">
<!--    <path fill="#f979a9" opacity="1.00" d=" M 559.34 284.47 C 564.91 281.79 572.53 284.65 574.33 290.72 C 576.64 296.92 571.58 304.35 564.96 304.45 C 559.76 305.02 554.50 301.15 553.71 295.94 C 552.70 291.41 555.13 286.43 559.34 284.47 Z" />-->
    <path fill="#f979a9" opacity="1.00" d=" M 376.36 358.42 C 414.41 342.56 452.55 326.89 490.57 310.95 C 503.40 339.32 516.19 367.71 528.85 396.15 C 531.41 401.66 533.72 407.55 538.30 411.75 C 545.03 418.78 554.50 422.00 563.65 424.51 C 600.65 436.30 637.63 448.18 674.77 459.54 C 665.78 463.86 656.36 467.32 647.14 471.16 C 583.64 497.18 520.39 523.78 456.99 550.03 C 452.09 552.42 446.19 552.94 441.12 550.76 C 409.42 535.63 377.82 520.28 346.32 504.75 C 341.55 502.24 336.13 500.64 332.19 496.83 C 328.23 492.35 326.21 485.78 328.10 479.97 C 339.40 445.17 351.30 410.57 362.98 375.90 C 365.00 368.68 369.07 361.36 376.36 358.42 M 383.37 441.48 C 377.77 443.04 372.48 446.30 369.22 451.20 C 365.26 456.94 364.91 464.54 366.82 471.08 C 368.89 478.24 375.09 483.64 382.08 485.82 C 388.68 488.01 396.17 486.79 402.03 483.17 C 409.14 478.73 412.90 470.13 412.66 461.91 C 411.84 455.35 408.43 448.94 402.88 445.20 C 397.26 441.37 390.02 439.62 383.37 441.48 Z" />
  </g>
  <g id="#4d6074ff">
    <path fill="#4d6074" opacity="1.00" d=" M 567.25 592.27 C 571.37 590.04 576.85 590.55 580.45 593.59 C 582.48 595.30 583.76 597.70 585.06 599.98 C 594.36 616.47 608.92 630.08 626.33 637.64 C 639.20 643.13 653.60 645.59 667.48 643.17 C 671.62 642.51 675.82 639.99 679.99 641.93 C 684.88 643.19 688.50 648.03 687.92 653.12 C 687.48 658.39 683.30 662.30 678.98 664.81 C 665.42 672.73 649.62 676.67 633.96 676.64 C 616.18 676.07 598.43 670.77 583.57 660.92 C 583.91 718.61 583.70 776.31 583.81 834.01 C 584.08 850.17 577.40 865.92 567.13 878.20 C 549.07 898.76 519.96 908.98 493.01 904.44 C 478.37 901.77 463.59 894.18 456.16 880.77 C 450.97 872.21 448.64 862.04 449.54 852.07 C 450.59 836.32 458.88 821.85 469.92 810.90 C 485.24 795.82 506.51 786.87 528.03 786.78 C 539.55 786.69 551.25 789.02 561.44 794.52 C 561.24 730.31 561.63 666.11 561.26 601.90 C 561.37 597.96 563.70 594.07 567.25 592.27 Z" />
  </g>
</svg>
